{"title":"No.Escape.2015.BRRiP.XViD.AC3.5.1.ReLeNTLesS","uid":12662588,"size":1485401649,"categoryP":"video","categoryS":"movies","magnet":"?xt=urn:btih:21f66f7f21a77386ffd273678e1f74bdf2e41f3c&amp;dn=No.Escape.2015.BRRiP.XViD.AC3.5.1.ReLeNTLesS&amp;tr=udp%3A%2F%2Ftracker.leechers-paradise.org%3A6969&amp;tr=udp%3A%2F%2Fzer0day.ch%3A1337&amp;tr=udp%3A%2F%2Fopen.demonii.com%3A1337&amp;tr=udp%3A%2F%2Ftracker.coppersurfer.tk%3A6969&amp;tr=udp%3A%2F%2Fexodus.desync.com%3A6969","seeders":0,"leechers":0,"uploader":"TvTeam","files":4,"time":1446320383,"description":"------------------------------------------------------------------------\r\n\r  https://www.torrenting.com\r\n\r\nSign up is OPEN - for time being. Come and have fun.\r\n\r\n------------------------------------------------------------------------P0STER\r\n[img]http://i.imgur.com/sV6f7ak.png[/img]\r\n\r\niMDB: http://www.imdb.com/title/tt1781922/\r\n\r\nGeneral\r\nComplete name               : No.Escape.2015.BRRiP.XViD.AC3.5.1.ReLeNTLesS.avi\r\nFormat                      : AVI\r\nFormat/Info                 : Audio Video Interleave\r\nFile size                   : 1.37 GiB\r\nDuration                    : 1h 43mn\r\nOverall bit rate            : 1 906 Kbps\r\n\r\nVideo\r\nID                          : 0\r\nFormat                      : MPEG-4 Visual\r\nFormat profile              : Advanced   \r\nFormat settings, BVOP       : 1\r\nFormat settings, QPel       : No\r\nFormat settings, GMC        : No warppoints\r\nFormat settings, Matrix     : Default (H.263)\r\nMuxing mode                 : Packed bitstream\r\nCodec ID                    : XVID\r\nCodec ID/Hint               : XviD\r\nDuration                    : 1h 43mn\r\nBit rate                    : 1 707 Kbps\r\nWidth                       : 720 pixels\r\nHeight                      : 384 pixels\r\nDisplay aspect ratio        : 1.85:1\r\nFrame rate                  : 23.976 fps\r\nColor space                 : YUV\r\nChroma subsampling          : 4:2:0\r\nBit depth                   : 8 bits\r\nScan type                   : Progressive\r\nCompression mode            : Lossy\r\nBits/(Pixel*Frame)          : 0.257\r\nStream size                 : 1.23 GiB (90%)\r\nWriting library             : XviD 1.2.1 (UTC 2008-12-04)\r\n\r\nAudio\r\nID                          : 1\r\nFormat                      : AC-3\r\nFormat/Info                 : Audio Coding 3\r\nMode extension              : CM (complete main)\r\nFormat settings, Endianness : Big\r\nCodec ID                    : 2000\r\nDuration                    : 1h 43mn\r\nBit rate mode               : Constant\r\nBit rate                    : 192 Kbps\r\nChannel(s)                  : 6 channels\r\nChannel positions           : Front: L C R, Side: L R, LFE\r\nSampling rate               : 48.0 KHz\r\nCompression mode            : Lossy\r\nStream size                 : 142 MiB (10%)\r\nAlignment                   : Aligned on interleaves\r\nInterleave, duration        : 64 ms (1.53 video frames)\r\nInterleave, preload duratio : 192 ms\r\nTitle                       : No.Escape.2015.ReLeNTLesS.audio.AC3.5.1. English\r\nSample Included             : Yes\r\nSource                      : DRONES \r\n\r\nPL0T\r\nIn their new overseas home, an American family soon finds themselves caught in the middle of a coup, and they frantically look for a safe escape in an environment where foreigners are being immediately executed.\r\n\r\nCAST\r\nDirector: John Erick Dowdle\r\nWriters: John Erick Dowdle, Drew Dowdle\r\nStars: Lake Bell, Pierce Brosnan, Owen Wilson\r\n\r\nSCREENS\r\n[img]http://i.imgur.com/wMw8Iov.png[/img]\r\n[img]http://i.imgur.com/oGq8cDX.png[/img]\r\n[img]http://i.imgur.com/2XmrYMC.png[/img]\r\n[img]http://i.imgur.com/MnaUgnx.png[/img]\r\n[img]http://i.imgur.com/E82HUXR.png[/img]\r\n[img]http://i.imgur.com/GGrCKAM.png[/img]\r\n\r\nTRAiLER\r\n\r\nGREETZ\r\n\r\nHIVE-CM8, Blackjesus, M0RPH, M00SE, MiLLENiUM,\r\n\r\nMANiX, TiTAN, Anonymous, TuX, \r\n\r\nACAB, KingStoner, FooKas, 4PlayHD, \r\n\r\nSoZE, GodFather, Cld.... \r\n\r\nKeep up the good work guyz","torrent":{"xt":"urn:btih:21f66f7f21a77386ffd273678e1f74bdf2e41f3c","amp;dn":"No.Escape.2015.BRRiP.XViD.AC3.5.1.ReLeNTLesS","amp;tr":["udp%3A%2F%2Ftracker.leechers-paradise.org%3A6969","udp%3A%2F%2Fzer0day.ch%3A1337","udp%3A%2F%2Fopen.demonii.com%3A1337","udp%3A%2F%2Ftracker.coppersurfer.tk%3A6969","udp%3A%2F%2Fexodus.desync.com%3A6969"],"infoHash":"21f66f7f21a77386ffd273678e1f74bdf2e41f3c","infoHashBuffer":{"type":"Buffer","data":[33,246,111,127,33,167,115,134,255,210,115,103,142,31,116,189,242,228,31,60]},"announce":[],"urlList":[]}}